<?xml version="1.0" standalone="no"?>
<!DOCTYPE svg PUBLIC "-//W3C//DTD SVG 1.1//EN" "http://www.w3.org/Graphics/SVG/1.1/DTD/svg11.dtd" >
<svg xmlns="http://www.w3.org/2000/svg" xmlns:xlink="http://www.w3.org/1999/xlink" version="1.1">
<metadata>
Created by FontForge 20161003 at Wed Jun 20 07:02:14 2018
 By www-data
Copyright 2012 Google Inc. All Rights Reserved.
</metadata>
<defs>
<font id="NotoSerifGeorgianRegular" horiz-adv-x="1182" >
  <font-face 
    font-family="NotoSerifGeorgianRegular"
    font-weight="400"
    font-stretch="normal"
    units-per-em="2048"
    panose-1="2 11 5 2 4 5 4 2 2 4"
    ascent="1638"
    descent="-410"
    bbox="-154 -502 2062 1898"
    underline-thickness="102"
    underline-position="-307"
    unicode-range="U+000D-FEFF"
  />
<missing-glyph horiz-adv-x="1024" 
d="M102 0v1462h820v-1462h-820zM201 98h622v1266h-622v-1266z" />
    <glyph glyph-name=".notdef" horiz-adv-x="1024" 
d="M102 0v1462h820v-1462h-820zM201 98h622v1266h-622v-1266z" />
    <glyph glyph-name=".null" horiz-adv-x="0" 
 />
    <glyph glyph-name="nonmarkingreturn" unicode="&#xd;" horiz-adv-x="1044" 
 />
    <glyph glyph-name="null" horiz-adv-x="0" 
 />
    <glyph glyph-name="null" horiz-adv-x="0" 
 />
    <glyph glyph-name="space" unicode=" " horiz-adv-x="532" 
 />
    <glyph glyph-name="space" unicode="&#xa0;" horiz-adv-x="532" 
 />
    <glyph glyph-name="uni0589" unicode="&#x589;" horiz-adv-x="590" 
d="M166 125q0 69 32 104t97 35q63 0 96 -36t33 -103t-32.5 -103t-96.5 -36q-65 0 -97 34.5t-32 104.5zM166 969q0 69 32 104t97 35q63 0 96 -36t33 -103t-32.5 -103.5t-96.5 -36.5q-65 0 -97 35t-32 105z" />
    <glyph glyph-name="uni10A0" unicode="&#x10a0;" horiz-adv-x="1591" 
d="M186 668q0 175 100 336.5t275 271.5l-132 -17q-64 -8 -107 -8q-203 0 -203 121q0 76 141 111q8 -53 45 -80t115 -27q135 0 368 45q304 62 449 62q201 0 201 -137q0 -46 -38 -80.5t-102 -48.5q-11 80 -49 114.5t-110 34.5q-379 0 -552 -169.5t-173 -530.5
q0 -297 102 -436.5t315 -139.5q204 0 310 140.5t106 416.5v197q121 -2 174.5 -59t53.5 -173q0 -176 -80.5 -322t-227.5 -228t-336 -82q-310 0 -477.5 178t-167.5 510z" />
    <glyph glyph-name="uni10A1" unicode="&#x10a1;" horiz-adv-x="1333" 
d="M43 1004q0 142 50 245.5t140 158t207 54.5v-96q-77 0 -123.5 -89t-46.5 -271q0 -367 295 -367q168 0 252 82.5t84 253.5v262q0 70 -36.5 104.5t-129.5 34.5h-8v86h381v-1462h-207v500q0 54 8 174h-10q-37 -67 -131.5 -106.5t-226.5 -39.5q-232 0 -365 121t-133 355z" />
    <glyph glyph-name="uni10A2" unicode="&#x10a2;" horiz-adv-x="1520" 
d="M92 870v129q0 230 131 357t365 127q236 0 357.5 -121t121.5 -356v-895q208 0 310 -53.5t102 -166.5q0 -56 -46.5 -93.5t-113.5 -37.5q0 124 -59 182t-193 58h-207v1012q0 177 -71 268.5t-209 91.5q-149 0 -215 -93t-66 -290v-119h-207z" />
    <glyph glyph-name="uni10A3" unicode="&#x10a3;" horiz-adv-x="1520" 
d="M1098 1360q-89 0 -242 -31v-182q257 -24 402 -175t145 -399q0 -274 -170 -433.5t-473 -159.5q-309 0 -477 154.5t-168 440.5q0 253 142 401t405 171v143q-224 -39 -340 -39q-203 0 -203 121q0 76 141 111q8 -53 45 -80t115 -27q103 0 328 45q304 62 448 62
q201 0 201 -137q0 -46 -38 -80.5t-102 -48.5q-11 78 -48.5 110.5t-110.5 32.5zM342 573q0 -248 103 -365.5t315 -117.5t314 117t102 366q0 250 -102.5 366t-311.5 116q-212 0 -316 -116.5t-104 -365.5z" />
    <glyph glyph-name="uni10A4" unicode="&#x10a4;" horiz-adv-x="1272" 
d="M92 999q0 230 129.5 357t366.5 127q236 0 357.5 -121t121.5 -356v-1006h-207v1012q0 177 -71 268.5t-209 91.5q-149 0 -215 -93t-66 -292v-117h-207v129z" />
    <glyph glyph-name="uni10A5" unicode="&#x10a5;" horiz-adv-x="1520" 
d="M1067 0h-207v1012q0 177 -71 268.5t-209 91.5q-149 0 -215 -93t-66 -292v-117h-207v129q0 230 129.5 357t366.5 127q236 0 357.5 -121t121.5 -356v-168h14q203 0 300.5 -61.5t97.5 -190.5q0 -68 -43 -105t-117 -37q0 147 -55 215t-181 68h-16v-727z" />
    <glyph glyph-name="uni10A6" unicode="&#x10a6;" horiz-adv-x="1503" 
d="M592 551q0 -243 68 -354t212 -111q145 0 212 112t67 353t-67 351t-214 110q-138 0 -208 -120.5t-70 -340.5zM41 1462h551v-305q0 -58 -8 -174h10q44 61 117.5 98t162.5 37q237 0 370.5 -148.5t133.5 -418.5t-137.5 -420.5t-372.5 -150.5q-223 0 -353 152.5t-130 418.5
v801h-344v110z" />
    <glyph glyph-name="uni10A7" unicode="&#x10a7;" horiz-adv-x="1669" 
d="M784 0q-318 0 -492.5 191t-174.5 538q0 351 173.5 542t493.5 191h433v-624h14q202 0 299.5 -61.5t97.5 -190.5q0 -68 -43 -105t-117 -37q0 147 -55 215t-180 68h-16v-727h-433zM831 1358q-242 0 -364.5 -160t-122.5 -469q0 -304 121.5 -465.5t363.5 -161.5h181v1256h-179
z" />
    <glyph glyph-name="uni10A8" unicode="&#x10a8;" horiz-adv-x="983" 
d="M41 1462h737v-1462h-207v1352h-530v110z" />
    <glyph glyph-name="uni10A9" unicode="&#x10a9;" horiz-adv-x="1341" 
d="M971 594q0 202 -77 310t-224 108q-279 0 -279 -490q0 -210 72 -323t205 -113q157 0 230 126.5t73 381.5zM184 1237q0 60 -30 99.5t-97 39.5h-16v86h350v-305q0 -58 -8 -174h10q47 65 128 100t190 35q140 0 245.5 -61t163.5 -177.5t58 -277.5v-1094h-207v433q0 54 8 174
h-10q-96 -135 -332 -135q-131 0 -235 66.5t-161 190t-57 285.5v715z" />
    <glyph glyph-name="uni10AA" unicode="&#x10aa;" horiz-adv-x="1628" 
d="M717 551q0 -241 67 -351t213 -110t212.5 110t66.5 351t-67 349t-214 108q-138 0 -208 -118.5t-70 -338.5zM717 1462v-305q0 -58 -8 -174h10q44 61 117.5 98t162.5 37q237 0 370.5 -148.5t133.5 -418.5t-137.5 -420.5t-372.5 -150.5q-223 0 -353 152.5t-130 418.5v801h-59
q-151 0 -233.5 -112t-82.5 -339h-94v561h676z" />
    <glyph glyph-name="uni10AB" unicode="&#x10ab;" horiz-adv-x="1520" 
d="M580 90q280 0 280 371v338h-229q-175 0 -253.5 -87.5t-78.5 -273.5q0 -174 69 -261t212 -87zM260 1462h807v-553h14q201 0 299.5 -60.5t98.5 -191.5q0 -68 -43.5 -104.5t-116.5 -36.5q0 147 -55 215t-181 68h-16v-338q0 -481 -479 -481q-245 0 -377.5 121.5t-132.5 349.5
q0 242 129 350t424 108h229v443h-600v110z" />
    <glyph glyph-name="uni10AC" unicode="&#x10ac;" horiz-adv-x="1292" 
d="M1065 1352h-633v-348q0 -59 -8 -175h10q30 67 108 106.5t185 39.5q184 0 286.5 -114.5t102.5 -325.5v-535h-207v535q0 163 -51 240t-172 77q-126 0 -190 -75.5t-64 -241.5v-535h-207v1229q0 77 -37.5 112t-130.5 35h-26v86h1034v-110z" />
    <glyph glyph-name="uni10AD" unicode="&#x10ad;" horiz-adv-x="1520" 
d="M1403 733q0 -189 -58.5 -345t-175.5 -271q-27 -26 -49 -75t-22 -114q0 -79 35.5 -120t99.5 -41q90 0 145 81q19 -8 30 -31.5t11 -49.5q0 -56 -61.5 -89.5t-161.5 -33.5q-133 0 -207 61.5t-74 167.5q0 69 29 129q-86 -22 -184 -22q-309 0 -477 196.5t-168 558.5
q0 357 167 553.5t480 196.5q299 0 470 -199.5t171 -552.5zM342 733q0 -330 103.5 -486.5t314.5 -156.5t313.5 155.5t102.5 487.5t-102 486.5t-312 154.5q-212 0 -316 -154t-104 -487z" />
    <glyph glyph-name="uni10AE" unicode="&#x10ae;" horiz-adv-x="1647" 
d="M41 1462h551v-1032q0 -161 81.5 -244.5t239.5 -83.5q153 0 237.5 84.5t84.5 235.5v815q0 50 -17.5 80.5t-51 44.5t-99.5 14h-27v86h402v-1044q0 -210 -135.5 -324t-384.5 -114q-271 0 -404 114t-133 348v910h-344v110z" />
    <glyph glyph-name="uni10AF" unicode="&#x10af;" horiz-adv-x="1507" 
d="M41 1462h594v-86q-78 0 -124 -95.5t-46 -279.5q0 -362 295 -362q168 0 252 82.5t84 253.5v262q0 70 -36.5 104.5t-129.5 34.5h-8v86h381v-1462h-207v500q0 54 8 174h-10q-108 -146 -359 -146q-236 0 -366.5 120.5t-130.5 350.5q0 223 143 353h-340v110z" />
    <glyph glyph-name="uni10B0" unicode="&#x10b0;" horiz-adv-x="1520" 
d="M92 651h207v-176q0 -202 67 -293.5t214 -91.5q142 0 211 95t69 266v1011h207v-624h14q203 0 300.5 -61.5t97.5 -190.5q0 -68 -43 -105t-117 -37q0 147 -55 215t-181 68h-16v-270q0 -235 -121.5 -356t-357.5 -121q-235 0 -365.5 126t-130.5 357v188z" />
    <glyph glyph-name="uni10B1" unicode="&#x10b1;" horiz-adv-x="1292" 
d="M1200 463q0 -230 -129.5 -356.5t-365.5 -126.5q-244 0 -362 125.5t-118 383.5v748q0 50 -17.5 80.5t-51 44.5t-99.5 14h-26v86h401v-987q0 -193 68.5 -289t212.5 -96q148 0 214 92t66 293v176h207v-188z" />
    <glyph glyph-name="uni10B2" unicode="&#x10b2;" horiz-adv-x="1237" 
d="M432 666h109q189 0 268.5 84t79.5 276q0 180 -75.5 259t-242.5 79h-139v-698zM788 111q289 0 289 -181q0 -60 -41 -92.5t-118 -32.5q0 81 -22 120.5t-72.5 57t-145.5 17.5h-453v1237q0 50 -17.5 80.5t-51 44.5t-99.5 14h-26v86h575q248 0 376 -110t128 -318
q0 -222 -143.5 -343.5t-405.5 -121.5h-129v-458h356z" />
    <glyph glyph-name="uni10B3" unicode="&#x10b3;" horiz-adv-x="1520" 
d="M1403 733q0 -341 -164 -545q108 -26 164.5 -98.5t56.5 -171.5q0 -75 -37.5 -138.5t-106.5 -99.5t-155 -36q-90 0 -147.5 35t-57.5 88q0 26 11.5 49.5t29.5 31.5q55 -81 146 -81q62 0 96.5 37t34.5 102q0 77 -34.5 127t-94.5 65q-153 -118 -385 -118q-309 0 -477 196.5
t-168 558.5q0 357 167 553.5t480 196.5q299 0 470 -199.5t171 -552.5zM342 733q0 -330 103.5 -486.5t314.5 -156.5t313.5 155.5t102.5 487.5t-102 486.5t-312 154.5q-212 0 -316 -154t-104 -487z" />
    <glyph glyph-name="uni10B4" unicode="&#x10b4;" horiz-adv-x="1622" 
d="M1505 946q0 -237 -159 -382t-447 -167v-397h-197v397q-284 23 -435.5 167t-151.5 384q0 258 180 396.5t518 138.5q326 0 509 -142t183 -395zM1278 946q0 203 -95 307t-284 119v-862q191 19 285 125t94 311zM342 946q0 -399 360 -436v862q-360 -26 -360 -426z" />
    <glyph glyph-name="uni10B5" unicode="&#x10b5;" horiz-adv-x="1286" 
d="M522 1237q0 60 -30 99.5t-97 39.5h-16v86h350v-538q229 45 315 45q201 0 201 -168q0 -56 -36.5 -98t-102.5 -62q-11 110 -48 157.5t-112 47.5q-88 0 -217 -25v-821h-207v780q-192 -43 -278 -43q-203 0 -203 144q0 45 38 80t103 51q12 -82 50 -116t110 -34q79 0 180 19
v356z" />
    <glyph glyph-name="uni10B6" unicode="&#x10b6;" horiz-adv-x="1466" 
d="M1055 0v1040q0 154 -85.5 243t-236.5 89q-155 0 -238 -88.5t-83 -251.5v-1032h-207v1020q0 233 132 348t404 115q250 0 385.5 -115t135.5 -324v-1044h-207z" />
    <glyph glyph-name="uni10B7" unicode="&#x10b7;" horiz-adv-x="1384" 
d="M391 928q0 -167 68.5 -248.5t193.5 -81.5q299 0 299 330v309q0 50 -17.5 80.5t-51 44.5t-99.5 14h-26v86h401v-1462h-207v459q0 84 9 174h-11q-33 -64 -126.5 -105t-202.5 -41q-207 0 -322 116t-115 325v309q0 60 -30 99.5t-97 39.5h-16v86h350v-534z" />
    <glyph glyph-name="uni10B8" unicode="&#x10b8;" horiz-adv-x="1364" 
d="M391 410q0 -168 69.5 -244t211.5 -76q136 0 208 96.5t72 276.5v160q0 84 9 174h-11q-96 -146 -329 -146q-207 0 -322 116t-115 325v145q0 60 -30 99.5t-97 39.5h-16v86h350v-370q0 -167 68.5 -248.5t193.5 -81.5q150 0 224.5 81t74.5 249v145q0 50 -17.5 80.5t-51 44.5
t-99.5 14h-26v86h401v-1005q0 -235 -121.5 -356t-357.5 -121t-366 106t-130 297v106h207v-79z" />
    <glyph glyph-name="uni10B9" unicode="&#x10b9;" horiz-adv-x="1292" 
d="M432 1147q0 -58 -8 -174h10q35 68 122 106.5t208 38.5q206 0 321 -116t115 -324v-678h-207v678q0 167 -68.5 248.5t-193.5 81.5q-299 0 -299 -330v-678h-207v1237q0 50 -17.5 80.5t-51 44.5t-99.5 14h-26v86h401v-315z" />
    <glyph glyph-name="uni10BA" unicode="&#x10ba;" horiz-adv-x="1257" 
d="M1180 209q0 -52 -33 -129.5t-99 -179t-117.5 -157t-93.5 -80.5t-94 -25q-44 0 -78 35t-34 89q0 57 28 113q54 -35 99 -35q58 0 120 46t121 134q-113 -40 -260 -40q-294 0 -458 200t-164 553q0 229 78 399t226.5 260.5t352.5 90.5q195 0 304.5 -62t109.5 -168
q0 -63 -50 -103t-128 -40q0 122 -64.5 193t-175.5 71q-217 0 -321.5 -155.5t-104.5 -485.5q0 -307 110.5 -469t315.5 -162q114 0 206 44t165 143q39 -25 39 -80z" />
    <glyph glyph-name="uni10BB" unicode="&#x10bb;" horiz-adv-x="1520" 
d="M860 1237q0 50 -17.5 80.5t-51 44.5t-99.5 14h-26v86h401v-553h14q201 0 299.5 -60.5t98.5 -191.5q0 -68 -43.5 -104.5t-116.5 -36.5q0 147 -55 215t-181 68h-16v-338q0 -481 -479 -481q-245 0 -377.5 121.5t-132.5 349.5q0 234 120 346t390 112h272v328zM299 438
q0 -174 69 -261t212 -87q280 0 280 371v338h-280q-281 0 -281 -361z" />
    <glyph glyph-name="uni10BC" unicode="&#x10bc;" horiz-adv-x="1237" 
d="M479 373v-373h-207v1237q0 50 -17.5 80.5t-51 44.5t-99.5 14h-26v86h575q248 0 376 -99t128 -288q0 -201 -144.5 -310.5t-404.5 -109.5h-129v-172h15q200 0 298.5 -60.5t98.5 -191.5q0 -68 -43.5 -104.5t-116.5 -36.5q0 147 -55 215t-180 68h-17zM479 752h109
q186 0 267 72.5t81 242.5q0 159 -75.5 228t-242.5 69h-139v-612z" />
    <glyph glyph-name="uni10BD" unicode="&#x10bd;" horiz-adv-x="1114" 
d="M506 -20q-190 0 -299 76t-109 212q0 62 38.5 100t109.5 38q7 -155 79.5 -240.5t196.5 -85.5q138 0 215.5 66.5t77.5 191.5q0 109 -67 176.5t-250 142.5q-202 83 -289.5 189t-87.5 266q0 170 123.5 270.5t324.5 100.5q111 0 198 -29.5t136 -82.5t49 -118
q0 -66 -43.5 -99.5t-117.5 -33.5q0 121 -61.5 190.5t-168.5 69.5q-117 0 -183.5 -63.5t-66.5 -169.5q0 -119 65.5 -187.5t252.5 -144.5q207 -85 294 -184.5t87 -239.5q0 -191 -134.5 -301t-369.5 -110z" />
    <glyph glyph-name="uni10BE" unicode="&#x10be;" horiz-adv-x="1389" 
d="M225 1237q0 50 -17.5 80.5t-51 44.5t-99.5 14h-26v86h401v-526q0 -166 75 -242t224 -76q262 0 262 318v301q0 50 -17.5 80.5t-51 44.5t-99.5 14h-26v86h401v-508q0 -212 -115 -329t-321 -117q-123 0 -209 38.5t-121 106.5h-10q8 -116 8 -174v-368h459q289 0 289 -181
q0 -60 -41 -92.5t-119 -32.5q0 81 -22 120.5t-72.5 57t-145.5 17.5h-555v1237z" />
    <glyph glyph-name="uni10BF" unicode="&#x10bf;" horiz-adv-x="1352" 
d="M666 719l-398 647h-178v96h1157v-84l-397 -577l340 -543l-168 -111l-295 474l-227 -336q-105 -155 -152.5 -200t-102 -65t-130.5 -20h-43v98h8q75 0 133 36.5t111 109.5zM791 897l184 285q51 78 51 125q0 30 -25 44.5t-86 14.5h-413z" />
    <glyph glyph-name="uni10C0" unicode="&#x10c0;" horiz-adv-x="1577" 
d="M1485 463q0 -230 -130 -356.5t-366 -126.5t-357.5 121t-121.5 356v895h-59q-151 0 -233.5 -112t-82.5 -339h-94v561h676v-1011q0 -171 68.5 -266t211.5 -95q147 0 214 91.5t67 293.5v137h207v-149z" />
    <glyph glyph-name="uni10C1" unicode="&#x10c1;" horiz-adv-x="1450" 
d="M1409 643v-111h-489v146q0 166 -60 248t-168 82q-260 0 -260 -330v-678h-207v1237q0 50 -17.5 80.5t-51 44.5t-99.5 14h-26v86h401v-315q0 -58 -8 -174h10q30 67 109.5 106t189.5 39q184 0 288.5 -115t104.5 -325v-35h283z" />
    <glyph glyph-name="uni10C2" unicode="&#x10c2;" horiz-adv-x="1294" 
d="M537 1300q198 0 343.5 -79.5t221.5 -229t76 -352.5q0 -305 -171 -482t-472 -177q-141 0 -240 32t-151 87.5t-52 131.5t46 114t126 38q0 -132 72.5 -212.5t198.5 -80.5q212 0 313.5 133t101.5 416q0 284 -101 417.5t-312 133.5h-312v47q0 50 -17.5 80.5t-51 44.5t-99.5 14
h-26v86h401v-162h105z" />
    <glyph glyph-name="uni10C3" unicode="&#x10c3;" horiz-adv-x="1333" 
d="M434 1163q-85 -23 -124.5 -98.5t-39.5 -206.5q0 -301 295 -301q168 0 252 82.5t84 253.5v344q0 70 -36.5 104.5t-129.5 34.5h-8v86h381v-1462h-207v418q0 58 8 174h-10q-117 -146 -358 -146t-369.5 110t-128.5 310q0 105 49 192t131.5 139t177.5 58z" />
    <glyph glyph-name="uni10C4" unicode="&#x10c4;" horiz-adv-x="1456" 
d="M647 510q-219 22 -320.5 131.5t-101.5 312.5v283q0 50 -17.5 80.5t-51 44.5t-99.5 14h-26v86h401v-520q0 -161 82 -244.5t240 -83.5q153 0 237 85t84 235v303q0 50 -17.5 80.5t-51 44.5t-99.5 14h-26v86h401v-532q0 -187 -108 -293.5t-320 -128.5v-508h-207v510z" />
    <glyph glyph-name="uni10C5" unicode="&#x10c5;" horiz-adv-x="1495" 
d="M737 559h463v-98h-463v-49q0 -221 -91 -326.5t-279 -105.5q-171 0 -250.5 75t-79.5 207q0 146 126.5 221.5t366.5 75.5v678q0 50 -17.5 80.5t-51 44.5t-99.5 14h-26v86h575q247 0 375.5 -94.5t128.5 -273.5q0 -193 -144 -297.5t-405 -104.5h-129v-133zM737 788h109
q189 0 268.5 69t79.5 228q0 148 -75.5 213.5t-241.5 65.5h-140v-576zM365 76q88 0 126.5 80.5t38.5 249.5v55q-150 0 -228.5 -53.5t-78.5 -149.5q0 -86 37 -134t105 -48z" />
    <glyph glyph-name="uni10D0" unicode="&#x10d0;" horiz-adv-x="1081" 
d="M969 397q0 -205 -115.5 -312.5t-335.5 -107.5q-129 0 -229 47.5t-153.5 132.5t-53.5 189q0 114 63 173t183 59q-52 -98 -52 -213q0 -132 65.5 -205.5t176.5 -73.5q121 0 185.5 79.5t64.5 237.5q0 97 -16.5 147.5t-54 91t-107.5 81.5q-129 73 -175 133t-46 139
q0 123 125 123q26 0 49.5 -11t31.5 -30q-21 -13 -29.5 -32t-8.5 -50q0 -59 26 -98.5t80 -73.5l82 -48q99 -58 148 -108.5t72.5 -116.5t23.5 -153z" />
    <glyph glyph-name="uni10D1" unicode="&#x10d1;" 
d="M1069 551q0 -571 -481 -571q-231 0 -353 146.5t-122 424.5q0 518 407 563q115 73 115 199q0 41 -25 69.5t-65 28.5q-32 0 -59 -11t-52 -24t-50.5 -24t-55.5 -11q-61 0 -94 35.5t-33 98.5q0 45 32 72t78 36q24 -88 99 -88q27 0 88 12q60 11 112 11q90 0 148.5 -50.5
t58.5 -134.5q0 -132 -143 -221q193 -25 294 -168t101 -393zM311 551q0 -243 68 -354t213 -111q143 0 210.5 109.5t67.5 355.5q0 240 -66.5 350.5t-213.5 110.5q-146 0 -212.5 -110t-66.5 -351z" />
    <glyph glyph-name="uni10D2" unicode="&#x10d2;" 
d="M705 858q0 67 -36 108.5t-96 41.5q-153 0 -153 -224q-71 0 -109.5 34t-38.5 89q0 89 83.5 150t215.5 61q139 0 222.5 -68.5t83.5 -179.5q0 -168 -179 -233q180 -27 275.5 -169.5t95.5 -387.5q0 -572 -481 -572q-231 0 -353 146.5t-122 425.5q0 494 360 557
q232 39 232 221zM311 80q0 -243 68 -354t213 -111q143 0 210.5 109.5t67.5 355.5q0 240 -66.5 350.5t-213.5 110.5q-146 0 -212.5 -110t-66.5 -351z" />
    <glyph glyph-name="uni10D3" unicode="&#x10d3;" horiz-adv-x="1731" 
d="M113 551q0 277 105 422t310 145q226 0 318 -192q111 192 344 192q428 0 428 -567q0 -277 -109.5 -424t-316.5 -147q-432 0 -432 571q0 461 -223 461q-113 0 -169.5 -112.5t-56.5 -348.5q0 -217 74.5 -381.5t214 -254t324.5 -89.5q37 0 95 5q57 5 122 5q73 0 114 -40
t41 -105q0 -50 -34.5 -83t-85.5 -42q-20 82 -139.5 120t-331.5 38q-93 0 -158 -11.5t-112 -30.5t-107 -67l-49 53q46 74 120 116t154 46q-221 99 -330.5 275t-109.5 446zM1419 551q0 244 -55 352.5t-174 108.5q-126 0 -179 -116t-53 -345q0 -241 55 -353t175 -112
q119 0 175 111.5t56 353.5zM1332 -492z" />
    <glyph glyph-name="uni10D4" unicode="&#x10d4;" horiz-adv-x="1165" 
d="M549 -502q-209 0 -333 126.5t-124 342.5q0 114 63.5 173t182.5 59q-47 -88 -47 -213q0 -185 65.5 -282t188.5 -97q147 0 221 146t74 429v258q0 282 -68.5 427t-196.5 145q-141 0 -207.5 -118t-74.5 -388q-79 0 -123.5 39t-44.5 112q1 124 58.5 231t160 168.5t231.5 61.5
q214 0 335.5 -180.5t121.5 -495.5v-262q0 -211 -60 -368t-168.5 -235.5t-254.5 -78.5z" />
    <glyph glyph-name="uni10D5" unicode="&#x10d5;" horiz-adv-x="1094" 
d="M508 -502q-137 0 -241.5 47t-160 132t-55.5 190q0 114 63 172.5t183 58.5q-51 -94 -51 -213q0 -135 67 -206.5t191 -71.5q141 0 209.5 87t68.5 273q0 181 -90.5 277t-261.5 96h-92v111h92q137 0 229.5 80.5t92.5 207.5q0 285 -244 285t-244 -285q-81 0 -121.5 29
t-40.5 94t51 124.5t142 95.5t213 36q214 0 326 -92.5t112 -275.5q0 -122 -84 -214.5t-225 -125.5v-11q161 -20 252.5 -132t91.5 -290q0 -224 -127.5 -351.5t-345.5 -127.5z" />
    <glyph glyph-name="uni10D6" unicode="&#x10d6;" horiz-adv-x="1335" 
d="M1223 551q0 -571 -482 -571q-231 0 -353 146.5t-122 424.5q0 180 49 309h-22q-158 0 -246 88t-88 266q0 353 338 353q162 0 247 -91.5t85 -261.5q0 -56 -11 -108q62 12 130 12q231 0 353 -146t122 -421zM465 551q0 -243 68 -354t212 -111q145 0 212 112t67 353t-67 351
t-214 110q-146 0 -212 -109t-66 -352zM137 1214q0 -130 35 -195t123 -65q86 0 122 65.5t36 194.5q0 128 -36.5 191t-123.5 63q-86 0 -121 -63.5t-35 -190.5z" />
    <glyph glyph-name="uni10D7" unicode="&#x10d7;" horiz-adv-x="1731" 
d="M541 1118q235 0 346 -192q91 192 317 192q204 0 309 -145t105 -432q0 -146 -51 -274t-135 -207.5t-164 -79.5q-45 0 -60.5 20t-15.5 61q111 8 169 135.5t58 354.5q0 235 -54 349t-169 114q-225 0 -225 -461q0 -571 -432 -571q-207 0 -316.5 147t-109.5 422q0 567 428 567
zM311 551q0 -229 53 -347t179 -118q117 0 173 109.5t56 357.5q0 227 -52.5 343t-178.5 116t-178 -116t-52 -345z" />
    <glyph glyph-name="uni10D8" unicode="&#x10d8;" 
d="M870 539q0 473 -280 473q-139 0 -209 -120t-70 -353q0 -220 37.5 -342.5t116.5 -161.5q0 -23 -18 -39t-44 -16q-77 0 -145 76.5t-106.5 205.5t-38.5 279q0 283 124.5 430t356.5 147q235 0 355 -146t120 -431q0 -148 -39.5 -279.5t-107 -206.5t-144.5 -75q-26 0 -43.5 16
t-17.5 39q80 40 116.5 164.5t36.5 339.5z" />
    <glyph glyph-name="uni10D9" unicode="&#x10d9;" horiz-adv-x="1053" 
d="M373 991q-6 13 -10.5 32.5t-4.5 27.5q0 67 131 67q202 0 309 -95.5t107 -272.5q0 -122 -84 -214.5t-225 -125.5v-11q161 -20 252.5 -132t91.5 -290q0 -225 -130.5 -352t-363.5 -127q-129 0 -229 47.5t-153.5 132.5t-53.5 189q0 114 63 172.5t183 58.5q-51 -94 -51 -213
q0 -129 62.5 -203.5t174.5 -74.5q153 0 226 86t73 274q0 183 -92 279t-260 96h-31v109h31q137 0 229.5 80.5t92.5 207.5q0 138 -58.5 204.5t-185.5 66.5q-56 0 -94 -19z" />
    <glyph glyph-name="uni10DA" unicode="&#x10da;" horiz-adv-x="2175" 
d="M311 539q0 -218 97 -378t277 -245.5t415 -85.5q68 0 152.5 5t183.5 5q87 0 136.5 -39.5t49.5 -105.5q0 -47 -34 -84t-87 -45q-14 46 -114 85t-269 61t-362 22q-268 0 -418 -119l-49 53q41 67 132.5 114.5t182.5 51.5q-241 107 -366 279t-125 424q0 182 48.5 314
t137.5 199.5t207 67.5q192 0 287 -190h8q88 190 289 190q194 0 284 -190h8q91 190 291 190q117 0 205.5 -71t136 -204t47.5 -317q0 -144 -38 -270.5t-102.5 -201t-135.5 -74.5q-23 0 -39 16t-16 39q133 89 133 491q0 236 -50.5 359t-148.5 123q-92 0 -141 -98t-49 -271v-127
h-193v123q0 373 -195 373q-92 0 -143 -97t-51 -272v-127h-193v123q0 185 -45.5 279t-142.5 94q-108 0 -154.5 -113t-46.5 -356zM1898 -492z" />
    <glyph glyph-name="uni10DB" unicode="&#x10db;" 
d="M537 1460q-154 0 -224 -110q-34 24 -34 73q0 38 33 71.5t94.5 53t146.5 19.5q516 0 516 -867q0 -364 -118.5 -542t-362.5 -178q-231 0 -353 146.5t-122 424.5q0 567 481 567q81 0 152 -29t124 -85q-16 224 -101 340t-232 116zM311 551q0 -243 68 -354t213 -111
q148 0 213 126.5t65 401.5q0 201 -69.5 299.5t-210.5 98.5q-146 0 -212.5 -110t-66.5 -351z" />
    <glyph glyph-name="uni10DC" unicode="&#x10dc;" horiz-adv-x="1180" 
d="M870 541q0 240 -67.5 346t-218.5 106q-148 0 -211.5 -101t-63.5 -351q0 -223 65 -339t210 -116q149 0 217.5 106t68.5 349zM315 981q53 56 133 86.5t170 30.5q220 0 334.5 -140.5t114.5 -416.5q0 -561 -483 -561q-178 0 -278.5 84t-146.5 263t-46 457q0 379 110 581
t314 202q45 0 136 -29q90 -29 148 -29q54 0 79 24.5t36 61.5q46 -9 78.5 -36t32.5 -72q0 -63 -40.5 -98t-111.5 -35q-59 0 -108 16.5t-94 36.5t-87 36.5t-86 16.5q-213 0 -213 -479h8z" />
    <glyph glyph-name="uni10DD" unicode="&#x10dd;" horiz-adv-x="1708" 
d="M950 471h-192v164q0 184 -52 278.5t-165 94.5q-117 0 -173.5 -119.5t-56.5 -362.5q0 -215 37 -333t117 -158q0 -23 -18 -39t-44 -16q-78 0 -145.5 74t-106 199t-38.5 273q0 278 113 435t313 157q211 0 311 -190h8q43 86 121.5 138t194.5 52q127 0 222.5 -70t147 -203.5
t51.5 -318.5q0 -148 -38.5 -273.5t-106.5 -199t-145 -73.5q-26 0 -44 16t-18 39q81 40 117.5 158t36.5 333q0 233 -57 357.5t-171 124.5q-105 0 -162 -96t-57 -273v-168z" />
    <glyph glyph-name="uni10DE" unicode="&#x10de;" horiz-adv-x="1124" 
d="M584 1483q187 0 290 -91t103 -266q0 -113 -82.5 -203t-226.5 -124v-11q159 -17 251.5 -118t92.5 -264q0 -204 -131.5 -319.5t-362.5 -115.5q-129 0 -229 47.5t-153.5 132.5t-53.5 189q0 114 62.5 172.5t183.5 58.5q-52 -96 -52 -213q0 -130 63.5 -204t174.5 -74
q152 0 225.5 75.5t73.5 243.5q0 161 -90.5 245.5t-261.5 84.5h-92v111h92q140 0 230.5 78.5t90.5 197.5q0 273 -221 273q-41 0 -72.5 -10t-60 -22t-57.5 -22t-64 -10q-49 0 -77.5 31.5t-28.5 77.5q0 109 100 133q9 -44 29 -72.5t61 -28.5q33 0 89 9q56 8 104 8zM516 1556z
" />
    <glyph glyph-name="uni10DF" unicode="&#x10df;" horiz-adv-x="1202" 
d="M428 963q25 -13 74.5 -23t105.5 -10q93 0 147 44t54 124h192v-1094q0 -243 -124.5 -374.5t-348.5 -131.5q-137 0 -241.5 47t-159.5 131t-55 191q0 114 62.5 172.5t182.5 58.5q-51 -98 -51 -213q0 -132 66.5 -205t191.5 -73q143 0 214 88.5t71 271.5v746q0 29 12 205h-12
q-49 -54 -104 -75t-132 -22q72 -65 72 -170q0 -111 -79 -176t-216 -65q-128 0 -209.5 61t-81.5 150q0 55 38.5 88.5t109.5 33.5q0 -115 35 -170t110 -55q127 0 127 158q0 51 -22.5 99t-69.5 79z" />
    <glyph glyph-name="uni10E0" unicode="&#x10e0;" horiz-adv-x="1708" 
d="M539 1118q211 0 311 -190h8q43 86 121.5 138t194.5 52q127 0 222.5 -70t147 -203.5t51.5 -318.5q0 -148 -38.5 -273.5t-106.5 -199t-145 -73.5q-26 0 -44 16t-18 39q81 40 117.5 158t36.5 333q0 233 -57 357.5t-171 124.5q-105 0 -162 -96t-57 -273v-168h-192v164
q0 184 -52 278.5t-165 94.5q-117 0 -173.5 -119.5t-56.5 -362.5q0 -215 37 -333t117 -158q0 -23 -18 -39t-44 -16q-78 0 -145.5 74t-106 199t-38.5 273q0 281 121.5 518.5t332 366.5t475.5 129q93 0 147 -35.5t54 -99.5q0 -50 -35 -81t-86 -40q-19 65 -67.5 91t-128.5 26
q-171 0 -308.5 -78.5t-226.5 -230.5q61 26 148 26zM1146 1556z" />
    <glyph glyph-name="uni10E1" unicode="&#x10e1;" horiz-adv-x="1266" 
d="M670 -20q-234 0 -341.5 116t-107.5 375v860q0 70 -36.5 104.5t-129.5 34.5h-8v86h367v-1079q0 -207 57 -289t199 -82q136 0 210 104t74 296q0 104 -14.5 191t-42.5 163.5t-92 190.5l86 67q129 -124 195.5 -281t66.5 -337q0 -237 -129.5 -378.5t-353.5 -141.5z" />
    <glyph glyph-name="uni10E2" unicode="&#x10e2;" horiz-adv-x="1536" 
d="M1423 301q0 -375 -172 -589t-481 -214q-317 0 -487 208t-170 597q0 341 135 539.5t387 238.5q-74 54 -105.5 110.5t-31.5 131.5q0 111 72 177.5t196 66.5q125 0 198.5 -67t73.5 -183q0 -130 -139 -234q251 -41 387.5 -247t136.5 -535zM311 301q0 -360 113 -528t346 -168
t344 168t111 528q0 297 -74.5 459.5t-224.5 212.5q66 -56 94.5 -114.5t28.5 -131.5q0 -119 -77 -195.5t-204 -76.5q-128 0 -204.5 75.5t-76.5 202.5q0 57 27 117.5t80 114.5q-143 -54 -213 -216t-70 -448zM901 723q0 176 -131 272q-79 -54 -109 -116t-30 -154
q0 -78 36.5 -121t98.5 -43q59 0 97 45t38 117zM641 1321q0 -136 119 -227q63 44 87 73.5t34 66t10 85.5q0 66 -33.5 103.5t-93.5 37.5q-54 0 -88.5 -37t-34.5 -102z" />
    <glyph glyph-name="uni10E3" unicode="&#x10e3;" horiz-adv-x="1288" 
d="M442 614v21q0 185 -36 279t-117 94q-71 0 -103 -49.5t-32 -157.5q-59 0 -91 23t-32 79q0 55 32 105t89 80t139 30q94 0 154.5 -49.5t86.5 -140.5h9q37 93 99 141.5t144 48.5q164 0 242 -113.5t78 -340.5v-660q0 -242 -135.5 -374t-376.5 -132q-149 0 -262 47t-173.5 131
t-60.5 191q0 114 63 172.5t183 58.5q-53 -98 -53 -213q0 -132 77 -205t220 -73q163 0 244 88t81 272v703q0 176 -29.5 257t-103.5 81q-56 0 -84.5 -36.5t-43.5 -116t-15 -216.5v-25h-193z" />
    <glyph glyph-name="uni10E4" unicode="&#x10e4;" horiz-adv-x="1812" 
d="M1057 -502q-189 0 -333.5 43.5t-222 121t-77.5 177.5t63.5 154.5t182.5 54.5q-52 -96 -52 -192q0 -120 111 -185t320 -65q234 0 348 86.5t114 273.5q0 179 -103 276t-302 97h-21v111h21q138 0 229.5 80.5t91.5 207.5q0 285 -243 285q-75 0 -141.5 -29.5t-106.5 -83.5
q63 -116 63 -272q0 -226 -122 -354.5t-334 -128.5q-210 0 -330.5 130t-120.5 353q0 225 119 352t338 127q193 0 311 -108q124 108 324 108q214 0 326 -92.5t112 -275.5q0 -122 -84 -214.5t-225 -125.5v-11q185 -20 291 -132t106 -290q0 -145 -78 -253.5t-227 -167
t-348 -58.5zM281 639q0 -177 71 -277t195 -100q127 0 195.5 98.5t68.5 278.5q0 178 -70 275.5t-196 97.5q-129 0 -196.5 -95t-67.5 -278z" />
    <glyph glyph-name="uni10E5" unicode="&#x10e5;" horiz-adv-x="1202" 
d="M809 1331q0 50 -17.5 80.5t-51 44.5t-99.5 14h-27v86h387v-1552q0 -243 -124.5 -374.5t-348.5 -131.5q-137 0 -241.5 47t-159.5 131t-55 191q0 114 62.5 172.5t182.5 58.5q-51 -98 -51 -213q0 -132 66.5 -205t191.5 -73q143 0 214 88.5t71 271.5v723q0 128 -23.5 192
t-74.5 96t-138 32q-90 0 -143 -51t-53 -142q0 -84 51 -147q-120 0 -183 44t-63 128q0 118 104 197t269 79q79 0 145 -24t109 -72h12q-12 176 -12 205v104z" />
    <glyph glyph-name="uni10E6" unicode="&#x10e6;" horiz-adv-x="1708" 
d="M113 551q0 271 110.5 419t315.5 148q209 0 309 -190h10q43 86 121 138t192 52q127 0 223 -70t148.5 -203t52.5 -319q0 -148 -39 -274.5t-106 -199t-145 -72.5q-26 0 -44 16t-18 39q82 40 118 158.5t36 332.5q0 237 -59 359.5t-171 122.5q-103 0 -160 -96.5t-57 -272.5
v-168h-192v164q0 184 -52 278.5t-165 94.5q-123 0 -176.5 -112.5t-53.5 -344.5q0 -210 66.5 -376t190 -257.5t288.5 -91.5l99 5q63 5 120 5q64 0 100.5 -39.5t36.5 -105.5q0 -47 -34.5 -83t-85.5 -44q-15 73 -129 115t-310 42q-92 0 -157.5 -11t-113 -30.5t-106.5 -66.5
l-49 53q45 72 120.5 118.5t154.5 49.5q-177 78 -283 272t-106 445zM1290 -492z" />
    <glyph glyph-name="uni10E7" unicode="&#x10e7;" horiz-adv-x="1202" 
d="M1001 1098v-1094q0 -243 -124.5 -374.5t-348.5 -131.5q-137 0 -241.5 47t-159.5 131t-55 191q0 114 62.5 172.5t182.5 58.5q-51 -98 -51 -213q0 -132 66.5 -205t191.5 -73q143 0 214 88.5t71 271.5v430q0 29 12 205h-12q-44 -46 -115 -71t-159 -25q-177 0 -291.5 92
t-114.5 236q0 130 69 207t177 77q-51 -75 -51 -254q0 -120 63 -185t178 -65q88 0 141 32t78 95t25 193v164h192z" />
    <glyph glyph-name="uni10E8" unicode="&#x10e8;" horiz-adv-x="1180" 
d="M309 492q0 -209 68.5 -307.5t218.5 -98.5q274 0 274 465q0 166 -70.5 256t-203.5 90q-150 0 -218.5 -94.5t-68.5 -310.5zM299 1460q-125 0 -125 -211q-123 0 -123 103q0 97 68.5 156t177.5 59q165 0 215 -166h8q67 166 236 166q163 0 237 -187t74 -561q0 -288 -48 -473
t-149 -275.5t-274 -90.5q-238 0 -360.5 132t-122.5 380t120 378.5t345 130.5q196 0 284 -116h8q0 221 -14 345t-41.5 177t-85.5 53q-70 0 -100.5 -77.5t-30.5 -219.5h-172q0 157 -27.5 227t-99.5 70z" />
    <glyph glyph-name="uni10E9" unicode="&#x10e9;" horiz-adv-x="1274" 
d="M414 1092v-146q0 -58 -8 -174h10q42 82 125 134t180 52q213 0 326.5 -122t113.5 -351q0 -148 -63 -271.5t-199 -233.5l-86 67q89 126 119.5 220.5t30.5 213.5q0 173 -68.5 259.5t-222.5 86.5q-120 0 -189 -77t-69 -209v-318q0 -71 35 -104t129 -33h10v-86h-551v86h16
q95 0 131.5 36.5t36.5 110.5v951q0 179 77 281t214 102q120 0 187 -59.5t67 -182.5q0 -233 -307 -233h-45zM414 1190h37q104 0 154 33.5t50 107.5q0 129 -118 129q-123 0 -123 -219v-51z" />
    <glyph glyph-name="uni10EA" unicode="&#x10ea;" horiz-adv-x="1296" 
d="M410 1030q-56 -86 -82.5 -262t-26.5 -465q0 -263 37 -413t118 -217.5t230 -67.5q148 0 228.5 79.5t80.5 229.5q0 153 -92 233t-260 80h-92v111h92q152 0 237 71.5t85 192.5q0 126 -55.5 194t-159.5 68q-112 0 -174 36.5t-62 107.5q0 46 39.5 78t87.5 32l41 -4
q-6 -27 -6 -49q0 -59 26 -83t95 -24q166 0 264 -92t98 -254q0 -128 -78 -210t-231 -105v-10q159 -17 251.5 -115t92.5 -254q0 -199 -139.5 -309.5t-392.5 -110.5q-273 0 -411 202.5t-138 602.5q0 241 56 456.5t155 338.5z" />
    <glyph glyph-name="uni10EB" unicode="&#x10eb;" 
d="M868 985q-8 178 -50 315.5t-105 196.5l71 70q156 -139 219.5 -335.5t63.5 -533.5q0 -365 -116.5 -541.5t-362.5 -176.5q-231 0 -353 146.5t-122 424.5q0 287 117.5 427t334.5 140q108 0 178 -34.5t117 -98.5h8zM311 551q0 -243 68 -354t213 -111q278 0 278 526
q0 200 -68.5 300t-211.5 100q-146 0 -212.5 -110t-66.5 -351z" />
    <glyph glyph-name="uni10EC" unicode="&#x10ec;" horiz-adv-x="1180" 
d="M870 492q0 215 -67 310t-219 95q-134 0 -204.5 -90t-70.5 -256q0 -465 275 -465q149 0 217.5 98t68.5 308zM879 1460q-68 0 -96.5 -67.5t-28.5 -229.5h-172q0 144 -31 220.5t-100 76.5q-59 0 -87 -55.5t-41.5 -179t-13.5 -340.5h8q88 116 285 116q224 0 344.5 -130
t120.5 -379t-124 -380.5t-359 -131.5q-176 0 -277 93t-147.5 279t-46.5 467q0 377 74.5 562.5t236.5 185.5q168 0 235 -166h9q48 166 215 166q107 0 176 -59.5t69 -155.5q0 -103 -122 -103q0 211 -127 211z" />
    <glyph glyph-name="uni10ED" unicode="&#x10ed;" horiz-adv-x="1124" 
d="M694 891q240 -120 240 -242q0 -40 -31 -84q-57 118 -209 203v-252q0 -65 20 -102.5t62 -69.5q114 -88 164 -147t71 -123.5t21 -155.5q0 -205 -126 -312.5t-363 -107.5q-139 0 -247.5 47.5t-167 132t-58.5 189.5q0 114 62.5 172.5t182.5 58.5q-51 -98 -51 -213
q0 -132 76 -210t203 -78q139 0 213.5 84t74.5 243q0 110 -33.5 187.5t-107.5 132.5q-87 62 -120 98.5t-50.5 77.5t-17.5 96v146q-34 -59 -85.5 -88t-111.5 -29q-107 0 -175.5 64.5t-68.5 164.5q0 101 69.5 165.5t180.5 64.5q103 0 191 -35v362q0 50 -17.5 80.5t-51 44.5
t-99.5 14h-27v86h387v-665zM346 672q30 0 65 23.5t61 65t30 85.5q-65 31 -148 31q-44 0 -74 -30.5t-30 -72.5q0 -46 24 -74t72 -28z" />
    <glyph glyph-name="uni10EE" unicode="&#x10ee;" horiz-adv-x="1274" 
d="M682 967q-153 0 -216 -99t-63 -317q0 -243 68 -354t213 -111t212 112t67 353q0 221 -68.5 318.5t-212.5 97.5zM403 936q64 82 140.5 122t173.5 40q229 0 336.5 -135t107.5 -412q0 -571 -481 -571q-231 0 -350 147t-119 424v780q0 50 -17.5 80.5t-51 44.5t-99.5 14h-16v86
h376v-272q0 -60 -8 -348h8z" />
    <glyph glyph-name="uni10EF" unicode="&#x10ef;" horiz-adv-x="1145" 
d="M694 551v-133q0 -59 19 -92t63 -64q152 -105 204 -182.5t52 -202.5q0 -185 -125.5 -282t-363.5 -97q-139 0 -247.5 47.5t-167 132t-58.5 189.5q0 114 62.5 172.5t182.5 58.5q-51 -98 -51 -213q0 -132 76 -210t203 -78q139 0 215 75t76 217q0 196 -144 285
q-116 74 -152 126t-36 118v227l-287 141v117l287 -141v110q0 71 -38 105.5t-130 34.5h-27v86h387v-430l287 -142v-114z" />
    <glyph glyph-name="uni10F0" unicode="&#x10f0;" horiz-adv-x="985" 
d="M463 1483q174 0 274.5 -69.5t100.5 -188.5q0 -93 -57 -159.5t-150 -94.5v-10q119 -27 170 -77.5t51 -144.5q0 -78 -53.5 -132.5t-167.5 -88.5v-10q241 -55 241 -240q0 -288 -440 -288q-121 0 -202 27.5t-122.5 77t-41.5 116.5q0 131 151 131q0 -117 59.5 -185.5
t165.5 -68.5q119 0 175.5 45.5t56.5 148.5q0 94 -63.5 139.5t-176.5 45.5h-129v110h131q221 0 221 172q0 95 -56.5 132.5t-176.5 37.5h-119v111h121q103 0 160 50.5t57 133.5q0 90 -47 137.5t-137 47.5q-41 0 -71 -10t-56.5 -22t-54 -22t-62.5 -10q-49 0 -77.5 31.5
t-28.5 77.5q0 109 100 133q9 -44 29 -72.5t61 -28.5q30 0 74 9q44 8 90 8zM589 1556z" />
    <glyph glyph-name="uni10F1" unicode="&#x10f1;" horiz-adv-x="1214" 
d="M610 1178q0 -199 -81.5 -338t-227.5 -191q5 -214 39.5 -336.5t105.5 -178.5t199 -56q258 0 258 188q0 180 -239 180h-48v111h50q117 0 169 42.5t52 123.5q0 91 -53.5 128.5t-180.5 37.5h-8v110h10q101 0 159 48.5t58 134.5q0 56 -19 89t-50 52.5t-87 41.5q-79 29 -79 97
q0 51 30.5 78t73.5 27q37 0 62 -11q-25 -41 -25 -81q0 -27 26 -44.5t119 -54.5q144 -58 144 -194q0 -169 -207 -232v-10q121 -27 171 -76t50 -141q0 -75 -50 -126.5t-171 -88.5v-10q124 -28 183 -86t59 -150q0 -282 -486 -282q-261 0 -382 184.5t-121 597.5
q0 249 35.5 425.5t99.5 267.5t149 91q95 0 154 -99t59 -269zM403 1448q-53 0 -76.5 -161t-25.5 -527q88 48 135 155t47 265q0 124 -22.5 196t-57.5 72z" />
    <glyph glyph-name="uni10F2" unicode="&#x10f2;" 
d="M1069 633q0 -189 -86 -330.5t-264 -249.5q121 -50 199 -63t206 -13q-2 -53 -33 -91t-69 -38q-78 0 -205.5 44t-226.5 92q-101 -49 -226.5 -92.5t-203.5 -43.5q-39 0 -70 38.5t-33 90.5q135 0 214.5 14.5t189.5 61.5q-180 111 -264 253t-84 327q0 226 127 355.5t354 129.5
q223 0 349 -128t126 -357zM311 633q0 -182 69.5 -307t209.5 -209q142 87 211 212t69 304q0 198 -66.5 288.5t-213.5 90.5q-146 0 -212.5 -91t-66.5 -288z" />
    <glyph glyph-name="uni10F3" unicode="&#x10f3;" horiz-adv-x="1155" 
d="M506 -492q-144 0 -252.5 45t-166.5 127.5t-58 186.5q0 114 62.5 172.5t182.5 58.5q-51 -98 -51 -213q0 -129 74 -203.5t209 -74.5q153 0 242.5 104t89.5 289q0 362 -439 362h-47v99q212 9 311 124.5t99 348.5h-377q-45 0 -70.5 -11t-40 -36.5t-26.5 -110.5h-101l13 322
h794v-154q0 -183 -90 -317.5t-248 -186.5q117 -9 218 -71.5t151.5 -154.5t50.5 -208q0 -155 -66 -267t-185.5 -171.5t-278.5 -59.5z" />
    <glyph glyph-name="uni10F4" unicode="&#x10f4;" horiz-adv-x="1124" 
d="M213 1245q0 151 103 236.5t278 85.5q170 0 265 -55t95 -162q0 -63 -36 -102.5t-93 -39.5q0 260 -241 260q-94 0 -149.5 -51.5t-55.5 -134.5q0 -78 20 -116t66.5 -68t130.5 -56q170 -52 239 -99.5t105.5 -116.5t36.5 -173q0 -113 -82.5 -203t-226.5 -124v-11
q160 -17 252 -118.5t92 -264.5q0 -203 -132 -318.5t-362 -115.5q-129 0 -229 47.5t-153.5 132.5t-53.5 189q0 114 62.5 172.5t183.5 58.5q-52 -96 -52 -213q0 -130 63.5 -204t174.5 -74q152 0 225.5 75.5t73.5 243.5q0 161 -90.5 245.5t-261.5 84.5h-92v111h92
q140 0 230.5 78.5t90.5 197.5q0 124 -52 191.5t-181 103.5q-186 52 -261 122.5t-75 184.5z" />
    <glyph glyph-name="uni10F5" unicode="&#x10f5;" horiz-adv-x="1255" 
d="M979 1004h211v-117h-211v-174h211v-117h-211v-168q0 -227 -105 -337.5t-329 -110.5q-432 0 -432 372q0 190 126.5 275.5t397.5 85.5h149v174h-149q-268 0 -396 79t-128 255q0 346 432 346q222 0 328 -110t106 -339v-114zM539 86q127 0 187 73.5t60 243.5v193h-143
q-187 0 -259.5 -56t-72.5 -192q0 -134 56.5 -198t171.5 -64zM311 1225q0 -123 73 -172t259 -49h143v139q0 170 -59.5 243.5t-187.5 73.5q-123 0 -175.5 -61.5t-52.5 -173.5z" />
    <glyph glyph-name="uni10F6" unicode="&#x10f6;" horiz-adv-x="1880" 
d="M844 -492v410q0 66 8 250h-8q-47 -97 -122.5 -142.5t-191.5 -45.5q-417 0 -417 567q0 278 116.5 424.5t335.5 146.5q124 0 217 -50t156 -163q59 100 158.5 156.5t220.5 56.5q220 0 335 -142.5t115 -424.5q0 -288 -103.5 -429.5t-313.5 -141.5q-211 0 -314 188h-8l8 -240
v-420h-192zM565 111q149 0 214 99t65 337t-67.5 339t-213.5 101q-128 0 -190 -108t-62 -334q0 -227 61 -330.5t193 -103.5zM1315 987q-149 0 -214 -99t-65 -337q0 -227 66.5 -333.5t214.5 -106.5q129 0 190.5 108t61.5 334q0 218 -59 326t-195 108z" />
    <glyph glyph-name="uni10F7" unicode="&#x10f7;" horiz-adv-x="1049" 
d="M82 -113q0 152 79.5 267t264.5 237q181 121 240 201t59 199q0 107 -56 170t-153 63q-107 0 -166 -77t-59 -226q-82 0 -115 32t-33 91q0 70 49.5 134.5t135.5 102t190 37.5q179 0 280 -93t101 -253q0 -164 -81.5 -284t-260.5 -234q-172 -110 -234.5 -193t-62.5 -200
q0 -124 73.5 -194t196.5 -70q135 0 215 102t80 266q64 0 103 -46.5t39 -115.5q0 -87 -56 -159t-153 -109t-230 -37q-200 0 -323 106.5t-123 282.5z" />
    <glyph glyph-name="uni10F8" unicode="&#x10f8;" horiz-adv-x="1202" 
d="M393 1098v-164q0 -127 25 -191.5t78.5 -96.5t140.5 -32q116 0 179 66t63 184q0 177 -52 254q109 0 177.5 -77.5t68.5 -206.5q0 -144 -114.5 -236t-290.5 -92q-86 0 -158 24.5t-117 71.5h-12q12 -176 12 -205v-430q0 -184 71 -272t214 -88q124 0 191 73t67 205
q0 119 -51 213q122 0 183.5 -59t61.5 -172q0 -107 -55 -191t-159 -131t-242 -47q-224 0 -348.5 132t-124.5 374v1094h192z" />
    <glyph glyph-name="uni10F9" unicode="&#x10f9;" 
d="M477 -231q0 -69 36.5 -111.5t94.5 -42.5q154 0 154 227q71 0 109 -33.5t38 -89.5q0 -57 -38 -106.5t-106.5 -77t-154.5 -27.5q-140 0 -222.5 68.5t-82.5 179.5q0 85 46.5 146.5t131.5 87.5q-178 27 -274 168.5t-96 388.5q0 571 481 571q231 0 353 -146.5t122 -424.5
q0 -494 -360 -557q-124 -22 -178 -73.5t-54 -147.5zM870 547q0 242 -67 353.5t-213 111.5q-145 0 -212 -112t-67 -353t67 -351t214 -110q146 0 212 109t66 352z" />
    <glyph glyph-name="uni10FA" unicode="&#x10fa;" horiz-adv-x="1165" 
d="M870 621q0 199 -68.5 295t-211.5 96q-146 0 -212.5 -98.5t-66.5 -313.5q0 -156 31.5 -250t102.5 -151.5t231 -104.5l57 -13q138 -27 203 -73t65 -117q0 -58 -39 -89t-110 -31q-7 97 -48 146t-128 71t-238 22q-141 0 -245 -84l-50 54q33 46 119 85t166 39
q-126 52 -188.5 113.5t-94.5 154t-32 228.5q0 253 124 385.5t357 132.5q217 0 343 -124.5t126 -336.5q0 -260 -234 -260q41 88 41 224z" />
    <glyph glyph-name="uni10FB" unicode="&#x10fb;" horiz-adv-x="1141" 
d="M166 125q0 139 129 139q63 0 96 -36t33 -103t-32.5 -103t-96.5 -36q-129 0 -129 139zM166 969q0 139 129 139q63 0 96 -36t33 -103t-32.5 -103.5t-96.5 -36.5q-129 0 -129 140zM739 547q0 139 129 139q63 0 96 -36t33 -103t-32.5 -103t-96.5 -36q-129 0 -129 139z" />
    <glyph glyph-name="uni10FC" unicode="&#x10fc;" horiz-adv-x="868" 
d="M598 1249q0 145 -40 206t-126 61t-124 -57t-38 -210q0 -131 37 -198.5t125 -67.5q87 0 126.5 61t39.5 205zM391 1798q-62 0 -91.5 -62.5t-31.5 -195.5q81 55 187 55q315 0 315 -346q0 -348 -338 -348q-124 0 -193 49.5t-103 156.5t-34 290q0 233 77.5 357t221.5 124
q32 0 91 -16q57 -19 98 -19q47 0 65 55q101 -20 101 -75q0 -37 -26.5 -63.5t-90.5 -26.5q-62 0 -150 34q-26 11 -51 21t-47 10z" />
    <glyph glyph-name="uni2D00" unicode="&#x2d00;" horiz-adv-x="1042" 
d="M180 989q-103 0 -149 -14v90q94 33 202 33h738v-109h-432v-631q0 -148 46.5 -210t153.5 -62q94 0 187 31v-90q-42 -23 -104.5 -36.5t-127.5 -13.5q-176 0 -262 91.5t-86 261.5v659h-166z" />
    <glyph glyph-name="uni2D01" unicode="&#x2d01;" horiz-adv-x="1300" 
d="M993 -90q0 50 -10.5 89.5t-24 71.5t-26 58t-17.5 49h-10q-58 -105 -137.5 -151.5t-208.5 -46.5q-338 0 -338 401v491q0 70 -37 105t-129 35h-8v86h367v-707q0 -151 51 -215.5t164 -64.5q125 0 191.5 84.5t66.5 246.5v422q0 76 -36 112t-130 36h-8v86h366v-756
q0 -52 12.5 -100.5t41.5 -111.5q28 -65 40.5 -114.5t12.5 -105.5q0 -114 -65 -206.5t-183 -144t-266 -51.5q-144 0 -255 31.5t-175 94t-64 133.5q0 63 38 97t110 34q0 -151 86.5 -223t259.5 -72q164 0 242.5 80.5t78.5 226.5z" />
    <glyph glyph-name="uni2D02" unicode="&#x2d02;" horiz-adv-x="1350" 
d="M455 926q53 98 131.5 145t197.5 47q344 0 344 -401v-375q0 -52 12.5 -100.5t41.5 -111.5q28 -65 40.5 -114.5t12.5 -105.5q0 -114 -65 -206.5t-183 -144t-266 -51.5q-144 0 -255 31.5t-175 94t-64 133.5q0 63 38.5 97t109.5 34q0 -151 86.5 -223t259.5 -72
q164 0 242.5 80.5t78.5 226.5q0 42 -12 84t-41 108q-53 117 -53 246v359q0 143 -54 211.5t-171 68.5q-120 0 -184 -85.5t-64 -246.5v-432q0 -71 35 -104t129 -33h10v-86h-551v86h16q95 0 131.5 35.5t36.5 111.5v582q0 107 -37 151t-118 44q-84 0 -127 -15v90q94 33 202 33
q112 0 173 -46t81 -146h11z" />
    <glyph glyph-name="uni2D03" unicode="&#x2d03;" 
d="M610 893q-146 -65 -226.5 -182t-80.5 -279t76.5 -254t206.5 -92q137 0 216 90t79 252q0 88 -25 159.5t-68.5 131t-144.5 145.5zM1012 1462v-108h-408v-45q0 -102 36 -170t130 -146q134 -111 189 -183t82.5 -156.5t27.5 -194.5q0 -223 -132 -351t-351 -128
q-215 0 -345 124t-130 334q0 353 444 512q-51 61 -73.5 132t-22.5 196v76h-176q-107 0 -150 -15v91q91 32 203 32h676z" />
    <glyph glyph-name="uni2D04" unicode="&#x2d04;" horiz-adv-x="1317" 
d="M270 815q0 107 -37 151t-118 44q-84 0 -127 -15v90q94 33 202 33q112 0 173 -46t81 -146h11q53 98 131.5 145t197.5 47q340 0 344 -401v-606q2 -152 36 -274.5t120 -270.5l-86 -68q-262 253 -262 619v590q0 143 -54 211.5t-171 68.5q-120 0 -184 -85.5t-64 -246.5v-432
q0 -71 35 -104t129 -33h10v-86h-551v86h16q95 0 131.5 35.5t36.5 111.5v582z" />
    <glyph glyph-name="uni2D05" unicode="&#x2d05;" horiz-adv-x="1964" 
d="M465 932q54 100 124 143t185 43q112 0 187.5 -47.5t109.5 -138.5h16q53 97 128 141.5t194 44.5q164 0 249 -100t85 -301v-484q0 -76 32 -111.5t123 -35.5h9v-86h-357v707q0 143 -52 211.5t-163 68.5q-109 0 -168 -77t-59 -218v-10v-571q0 -147 33.5 -270t122.5 -275
l-86 -68q-263 254 -263 619v590q0 143 -52 211.5t-163 68.5q-116 0 -176.5 -86t-60.5 -246v-432q0 -70 35.5 -103.5t130.5 -33.5h8v-86h-551v86h27q90 0 123.5 34.5t33.5 112.5v582q0 107 -37 151t-118 44q-84 0 -127 -15v90q94 33 202 33q117 0 181 -44.5t84 -141.5h10z
" />
    <glyph glyph-name="uni2D06" unicode="&#x2d06;" horiz-adv-x="1196" 
d="M887 541q0 242 -68.5 347t-218.5 105q-148 0 -211 -101.5t-63 -350.5q0 -223 65 -339t209 -116q148 0 217.5 106t69.5 349zM324 981h8q53 55 131 86t172 31q220 0 334 -140.5t114 -416.5q0 -561 -483 -561q-178 0 -278.5 84t-146.5 263t-46 457v480q0 105 -36 149.5
t-120 44.5q-87 0 -127 -14v90q97 33 203 33q275 0 275 -303v-283z" />
    <glyph glyph-name="uni2D07" unicode="&#x2d07;" horiz-adv-x="1915" 
d="M866 707q0 143 -52 211.5t-163 68.5q-116 0 -176.5 -86t-60.5 -246v-264q0 -156 48 -218t156 -62q248 0 248 331v265zM907 0l-26 166h-11q-55 -99 -127.5 -142.5t-193.5 -43.5q-167 0 -247.5 97.5t-80.5 303.5v491q0 73 -34 106.5t-121 33.5h-9v86h322l27 -166h10
q54 100 124 143t185 43q112 0 187.5 -47.5t109.5 -138.5h16q53 97 128 141.5t194 44.5q164 0 249 -100t85 -301v-484q0 -76 32 -111.5t123 -35.5h9v-86h-357v707q0 143 -52 211.5t-163 68.5t-169 -78.5t-58 -226.5v-449q0 -76 32 -111.5t123 -35.5h9v-86h-316z" />
    <glyph glyph-name="uni2D08" unicode="&#x2d08;" horiz-adv-x="958" 
d="M717 233q0 -76 35 -111.5t129 -35.5h20v-86h-561v86h18q95 0 130.5 32.5t35.5 104.5v500q0 150 -59 218.5t-197 68.5q-114 0 -227 -31v90q32 16 115 32.5t151 16.5q410 0 410 -381v-504z" />
    <glyph glyph-name="uni2D09" unicode="&#x2d09;" horiz-adv-x="1292" 
d="M926 526q0 235 -68 338t-213 103q-152 0 -215 -99.5t-63 -316.5q0 -232 70 -336t220 -104q140 0 204.5 102t64.5 313zM911 135q-117 -155 -288 -155q-449 0 -449 571v780q0 50 -17.5 80.5t-51 44.5t-99.5 14h-16v86h377v-387q0 -149 -9 -233h9q123 162 313 162
q227 0 332.5 -133.5t105.5 -413.5v-440q0 -163 32.5 -284t117.5 -261l-86 -68q-135 133 -198.5 285t-63.5 352h-9z" />
    <glyph glyph-name="uni2D0A" unicode="&#x2d0a;" horiz-adv-x="1935" 
d="M1079 391q0 -147 47 -213.5t156 -66.5q118 0 179 86t61 245v265q0 143 -52 211.5t-163 68.5q-110 0 -169 -78.5t-59 -226.5v-291zM887 707q0 143 -52 211.5t-163 68.5q-115 0 -176.5 -86t-61.5 -246v-432q0 -70 35.5 -103.5t130.5 -33.5h8v-86h-551v86h27q90 0 124 35
t34 112v639q0 73 -34 106.5t-122 33.5h-8v86h321l27 -166h10q54 100 124 143t185 43q112 0 187.5 -47.5t109.5 -138.5h17q52 96 126 141t195 45q164 0 249 -100t85 -301v-484q0 -77 33 -112t123 -35h8v-86h-315l-27 166h-10q-48 -94 -121.5 -140t-194.5 -46
q-164 0 -243.5 99t-79.5 302v326z" />
    <glyph glyph-name="uni2D0B" unicode="&#x2d0b;" horiz-adv-x="1249" 
d="M311 549q0 -461 303 -461q143 0 203 113.5t60 388.5v401h-236q-171 0 -250.5 -108.5t-79.5 -333.5zM1231 1098v-107h-162v-393q0 -325 -110 -471.5t-349 -146.5q-236 0 -366.5 148.5t-130.5 420.5q0 278 131 413.5t401 135.5h232q0 360 -263 360q-148 0 -272 -31v91
q54 21 143 35t156 14q205 0 316.5 -124t111.5 -345h162z" />
    <glyph glyph-name="uni2D0C" unicode="&#x2d0c;" horiz-adv-x="1300" 
d="M416 932q92 186 301 186q362 0 362 -401v-484q0 -78 34 -112.5t124 -34.5h6v-86h-356v707q0 143 -54 211.5t-171 68.5q-121 0 -184.5 -86.5t-63.5 -245.5v-432q0 -71 36.5 -104t131.5 -33h6v-86h-551v86h16q95 0 131.5 36.5t36.5 110.5v953q0 383 484 383q65 0 161.5 -14
t153.5 -35v-90q-137 30 -285 30q-173 0 -247 -68t-74 -221v-65q0 -58 -8 -174h10z" />
    <glyph glyph-name="uni2D0D" unicode="&#x2d0d;" horiz-adv-x="1935" 
d="M1694 225q0 -51 15.5 -81.5t46.5 -44t93 -13.5h9v-86h-322l-27 166h-10q-52 -98 -122.5 -142t-186.5 -44q-112 0 -187.5 47.5t-109.5 138.5h-16q-51 -96 -126.5 -141t-195.5 -45q-334 0 -334 401v483q0 76 -32 112t-123 36h-9v86h357v-707q0 -143 52 -211.5t163 -68.5
t169 78.5t58 226.5v448q0 77 -33 112.5t-123 35.5h-8v86h357v-707q0 -143 52 -211.5t163 -68.5q114 0 175.5 85.5t61.5 245.5v432q0 69 -35.5 103.5t-130.5 34.5h-8v86h367v-873z" />
    <glyph glyph-name="uni2D0E" unicode="&#x2d0e;" horiz-adv-x="1329" 
d="M442 391q0 -148 50.5 -214t164.5 -66q125 0 191.5 84.5t66.5 246.5v422q0 75 -35 111.5t-130 36.5h-9v86h367v-875q0 -70 35.5 -103.5t130.5 -33.5h8v-86h-326l-26 166h-10q-53 -96 -130 -141t-202 -45q-338 0 -338 401v434q0 104 -33 149.5t-111 45.5q-79 0 -118 -15v90
q90 33 194 33q137 0 198.5 -76t61.5 -219v-432z" />
    <glyph glyph-name="uni2D0F" unicode="&#x2d0f;" horiz-adv-x="1296" 
d="M1108 111q0 -155 33 -276.5t123 -268.5l-86 -68q-138 136 -200.5 287.5t-62.5 349.5h-8q-59 -77 -139.5 -116t-165.5 -39q-176 0 -264 102.5t-88 298.5v434q0 104 -33 149.5t-111 45.5q-79 0 -118 -15v90q90 33 194 33q137 0 198.5 -76t61.5 -219v-432q0 -148 50.5 -214
t164.5 -66q125 0 191.5 84.5t66.5 246.5v422q0 75 -35 111.5t-130 36.5h-9v86h367v-987z" />
    <glyph glyph-name="uni2D10" unicode="&#x2d10;" horiz-adv-x="1925" 
d="M1059 223q0 -70 35.5 -103.5t130.5 -33.5h8v-86h-326l-26 166h-11q-55 -99 -127.5 -142.5t-193.5 -43.5q-167 0 -247.5 97.5t-80.5 303.5v491q0 70 -37 105t-129 35h-8v86h367v-707q0 -156 48 -218t156 -62q248 0 248 331v881q0 76 -36.5 111.5t-129.5 35.5h-8v86h367
v-450q0 -58 -8 -174h10q46 93 115.5 139.5t175.5 46.5q175 0 263.5 -95.5t88.5 -305.5v-484q0 -77 33 -112t123 -35h8v-86h-357v707q0 148 -50.5 214t-164.5 66q-237 0 -237 -332v-432z" />
    <glyph glyph-name="uni2D11" unicode="&#x2d11;" horiz-adv-x="1260" 
d="M1038 223q0 -70 35.5 -103.5t130.5 -33.5h8v-86h-325l-27 166h-10q-53 -96 -130 -141t-202 -45q-338 0 -338 401v950q0 72 -35.5 105.5t-126.5 33.5h-8v86h363v-1165q0 -151 51 -215.5t164 -64.5q125 0 191.5 84.5t66.5 246.5v422q0 76 -36 112t-130 36h-8v86h366v-875z
" />
    <glyph glyph-name="uni2D12" unicode="&#x2d12;" horiz-adv-x="1237" 
d="M641 111q285 0 285 448q0 212 -74.5 331.5t-208.5 119.5q-151 0 -217 -106t-66 -378q0 -230 65.5 -322.5t215.5 -92.5zM647 -395q105 0 169.5 71.5t92.5 221.5q48 -3 82.5 -36t34.5 -98q0 -66 -48.5 -126.5t-134.5 -95t-198 -34.5q-233 0 -355 134.5t-122 382.5v481
q0 292 126.5 452t356.5 160q138 0 246 -68.5t167.5 -195t59.5 -291.5q0 -294 -115 -438.5t-362 -144.5q-100 0 -174.5 48t-112.5 132h-8l6 -87l2 -93q0 -189 70.5 -282t216.5 -93z" />
    <glyph glyph-name="uni2D13" unicode="&#x2d13;" horiz-adv-x="1892" 
d="M1694 111q0 -159 31.5 -280.5t117.5 -264.5l-86 -68q-135 133 -198.5 285t-63.5 352h-8q-58 -84 -124.5 -119.5t-162.5 -35.5h-10q-229 5 -297 186h-16q-51 -96 -126.5 -141t-195.5 -45q-334 0 -334 401v483q0 76 -32 112t-123 36h-9v86h357v-707q0 -143 52 -211.5
t163 -68.5t169 78.5t58 226.5v448q0 77 -33 112.5t-123 35.5h-8v86h357v-707q0 -143 52 -211.5t163 -68.5q114 0 175.5 85.5t61.5 245.5v891q0 70 -35.5 103.5t-130.5 33.5h-8v86h367v-1445z" />
    <glyph glyph-name="uni2D14" unicode="&#x2d14;" horiz-adv-x="1880" 
d="M1192 -434l-86 -68q-262 207 -262 508q0 55 8 162h-8q-47 -97 -122.5 -142.5t-191.5 -45.5q-417 0 -417 567q0 278 116.5 424.5t335.5 146.5q124 0 217 -50t156 -163q59 100 158.5 156.5t220.5 56.5q220 0 335 -142.5t115 -424.5q0 -288 -103.5 -429.5t-313.5 -141.5
q-211 0 -314 188h-8q8 -107 8 -168q0 -115 32.5 -212.5t123.5 -221.5zM565 111q149 0 214 99t65 337t-67.5 339t-213.5 101q-128 0 -190 -108t-62 -334q0 -227 61 -330.5t193 -103.5zM1315 987q-149 0 -214 -99t-65 -337q0 -227 66.5 -333.5t214.5 -106.5q129 0 190.5 108
t61.5 334q0 218 -59 326t-195 108z" />
    <glyph glyph-name="uni2D15" unicode="&#x2d15;" horiz-adv-x="1196" 
d="M502 1331q0 50 -17.5 80.5t-51 44.5t-99.5 14h-27v86h387v-739l82 25q140 45 228 45q73 0 112 -40t39 -106q0 -52 -31 -88.5t-86 -48.5q-14 74 -42.5 100.5t-82.5 26.5q-119 0 -219 -20v-600q0 -149 32.5 -273t119.5 -272l-86 -68q-258 249 -258 619v561l-81 -24
q-141 -46 -228 -46q-72 0 -112 39.5t-40 106.5q0 52 31 88.5t86 48.5q10 -68 39.5 -97.5t85.5 -29.5q133 0 219 20v547z" />
    <glyph glyph-name="uni2D16" unicode="&#x2d16;" horiz-adv-x="1321" 
d="M608 86v-86h-551v86h17q95 0 131.5 36.5t36.5 110.5v639q0 70 -37 105t-129 35h-8v86h331l27 -166h10q51 94 124 140t196 46q344 0 344 -401v-484q0 -76 32 -111.5t123 -35.5h9v-86h-357v707q0 143 -54 211.5t-171 68.5q-120 0 -184 -85.5t-64 -246.5v-432
q0 -70 35.5 -103.5t130.5 -33.5h8z" />
    <glyph glyph-name="uni2D17" unicode="&#x2d17;" horiz-adv-x="1268" 
d="M573 -20q-176 0 -264 102.5t-88 298.5v491q0 70 -37 105t-129 35h-8v86h367v-707q0 -151 51 -215.5t164 -64.5q125 0 191.5 84.5t66.5 246.5v422q0 76 -36 112t-130 36h-8v86h366v-987q0 -155 33 -276.5t123 -268.5l-86 -68q-135 133 -198.5 285t-63.5 352h-8
q-59 -77 -140 -116t-166 -39z" />
    <glyph glyph-name="uni2D18" unicode="&#x2d18;" horiz-adv-x="1268" 
d="M887 4q0 69 14 162h-10q-53 -96 -130 -141t-202 -45q-338 0 -338 401v491q0 70 -37 105t-129 35h-8v86h367v-707q0 -151 51 -215.5t164 -64.5q125 0 191.5 84.5t66.5 246.5v422q0 76 -36 112t-130 36h-8v86h366v-1096q0 -149 -60 -261.5t-169.5 -172.5t-247.5 -60
q-120 0 -205 35.5t-131.5 95t-46.5 128.5q0 63 38 97t110 34q0 -136 62 -215.5t171 -79.5q155 0 221 87.5t66 301.5v12z" />
    <glyph glyph-name="uni2D19" unicode="&#x2d19;" horiz-adv-x="1260" 
d="M373 111q0 -156 33.5 -278t117.5 -267l-86 -68q-124 120 -191 276.5t-67 342.5v1214q0 72 -35.5 105.5t-126.5 33.5h-8v86h363v-450q0 -58 -8 -174h10q92 186 301 186q362 0 362 -401v-484q0 -77 33 -112t123 -35h8v-86h-356v707q0 143 -54 211.5t-171 68.5
q-121 0 -184.5 -86.5t-63.5 -245.5v-544z" />
    <glyph glyph-name="uni2D1A" unicode="&#x2d1a;" horiz-adv-x="1311" 
d="M424 -20q0 -192 63 -283.5t191 -91.5q101 0 152.5 68.5t66.5 203.5q61 -5 94 -42t33 -91q0 -65 -42.5 -119t-122.5 -85.5t-185 -31.5q-216 0 -329.5 134.5t-113.5 382.5v847q0 72 -37.5 106t-127.5 34h-9v86h332l27 -166h10q53 97 126.5 141.5t192.5 44.5q345 0 345 -401
v-484q0 -76 32 -111.5t123 -35.5h8v-86h-356v707q0 143 -54 211.5t-171 68.5q-120 0 -184 -85.5t-64 -246.5v-675z" />
    <glyph glyph-name="uni2D1B" unicode="&#x2d1b;" horiz-adv-x="1882" 
d="M1016 553q0 -571 -453 -571q-218 0 -334 144.5t-116 420.5q0 291 100 431t307 140q101 0 175.5 -43t127.5 -139h13q-13 163 -13 227v168q0 50 -17.5 80.5t-51 44.5t-99.5 14h-16v86h377v-397l-8 -164l-4 -59h10q51 95 120.5 138.5t192.5 43.5q334 0 334 -401v-484
q0 -77 33 -112t123 -35h8v-86h-357v707q0 148 -50.5 214t-164.5 66q-237 0 -237 -332v-102zM823 551q0 242 -63 339t-207 97q-125 0 -183.5 -104t-58.5 -338q0 -239 61.5 -349t196.5 -110q133 0 193.5 111t60.5 354z" />
    <glyph glyph-name="uni2D1C" unicode="&#x2d1c;" horiz-adv-x="1915" 
d="M414 111q0 -156 33.5 -278t117.5 -267l-86 -68q-124 120 -191 276.5t-67 342.5v755q0 73 -34 106.5t-121 33.5h-9v86h322l27 -166h10q54 100 124 143t185 43q112 0 187.5 -47.5t109.5 -138.5h16q53 97 128 141.5t194 44.5q164 0 249 -100t85 -301v-484q0 -76 32 -111.5
t123 -35.5h9v-86h-357v707q0 143 -52 211.5t-163 68.5t-169 -78.5t-58 -226.5v-449q0 -76 32 -111.5t123 -35.5h9v-86h-357v707q0 143 -52 211.5t-163 68.5q-116 0 -176.5 -86t-60.5 -246v-544z" />
    <glyph glyph-name="uni2D1D" unicode="&#x2d1d;" horiz-adv-x="1325" 
d="M270 815q0 107 -37 151t-118 44q-84 0 -127 -15v90q94 33 202 33q112 0 173 -46t81 -146h11q53 98 131.5 145t197.5 47q344 0 344 -401v-191h-192v181q0 143 -54 211.5t-171 68.5q-120 0 -184 -85.5t-64 -246.5v-245q105 24 215 24q244 0 368.5 -117.5t124.5 -343.5
q0 -465 -479 -465q-224 0 -350.5 94.5t-126.5 254.5q0 252 246 252q-47 -88 -47 -213q0 -145 69.5 -213t210.5 -68q145 0 212 86t67 272q0 196 -81.5 274.5t-264.5 78.5q-147 0 -357 -39v528z" />
    <glyph glyph-name="uni2D1E" unicode="&#x2d1e;" horiz-adv-x="1300" 
d="M399 166q15 -86 15 -162v-12q0 -216 66 -302.5t220 -86.5q111 0 172.5 79.5t61.5 215.5q71 0 109 -34t38 -97q0 -69 -46.5 -128.5t-132 -95t-204.5 -35.5q-140 0 -249 60.5t-168.5 173t-59.5 260.5v870q0 70 -37 105t-129 35h-8v86h367v-656q0 -161 66.5 -246t191.5 -85
q114 0 164.5 66.5t50.5 213.5v473q0 76 -36 112t-130 36h-8v86h366v-717q0 -401 -338 -401q-125 0 -202.5 45.5t-128.5 140.5h-11z" />
    <glyph glyph-name="uni2D1F" unicode="&#x2d1f;" horiz-adv-x="1051" 
d="M334 891l153 -273l201 371h-430q-138 0 -199 -14v90q97 33 203 33h633v-84l-315 -553l102 -172q65 -107 112 -149t105 -42q42 0 86 27l35 -66q-34 -35 -74 -57t-102 -22q-57 0 -97.5 17t-73 50t-66 90.5t-99.5 194.5l-354 -697h-215l479 857l-228 399h144z" />
    <glyph glyph-name="uni2D20" unicode="&#x2d20;" horiz-adv-x="1974" 
d="M1108 391q0 -156 48 -218t157 -62q248 0 248 331v422q0 76 -36 112t-130 36h-9v86h367v-875q0 -70 35.5 -103.5t130.5 -33.5h8v-86h-325l-27 166h-10q-54 -97 -127.5 -141.5t-194.5 -44.5q-167 0 -247.5 97.5t-80.5 303.5v326q0 148 -50.5 214t-164.5 66
q-237 0 -237 -332v-432q0 -71 35 -104t129 -33h10v-86h-551v86h16q95 0 131.5 35.5t36.5 111.5v582q0 107 -37 151t-118 44q-84 0 -127 -15v90q94 33 202 33q112 0 173 -46t81 -146h11q55 101 129.5 146.5t189.5 45.5q334 0 334 -401v-326z" />
    <glyph glyph-name="uni2D21" unicode="&#x2d21;" horiz-adv-x="1178" 
d="M373 111q0 -156 33.5 -278t117.5 -267l-86 -68q-124 120 -191 276.5t-67 342.5v1214q0 72 -35.5 105.5t-126.5 33.5h-8v86h363v-450q0 -58 -8 -174h10q83 186 272 186q160 0 245 -95.5t85 -305.5q0 -57 13.5 -88.5t40.5 -45.5t102 -14h8v-86h-357v224q0 147 -47.5 213.5
t-148.5 66.5q-107 0 -161 -87t-54 -245v-544z" />
    <glyph glyph-name="uni2D22" unicode="&#x2d22;" 
d="M590 -20q-222 0 -349.5 117.5t-127.5 320.5q0 133 60.5 197.5t184.5 64.5q-47 -92 -47 -213q0 -196 69 -288.5t212 -92.5t210.5 109.5t67.5 355.5t-72.5 352.5t-234.5 106.5q-107 0 -297 -31v90q55 18 140.5 33.5t168.5 15.5q244 0 369 -144t125 -423q0 -571 -479 -571z
" />
    <glyph glyph-name="uni2D23" unicode="&#x2d23;" horiz-adv-x="1268" 
d="M573 -20q-176 0 -264 102.5t-88 298.5v491q0 70 -37 105t-129 35h-8v86h367v-707q0 -151 51 -215.5t164 -64.5q125 0 191.5 84.5t66.5 246.5v881q0 76 -36.5 111.5t-129.5 35.5h-8v86h366v-1445q0 -155 33 -276.5t123 -268.5l-86 -68q-135 133 -198.5 285t-63.5 352h-8
q-59 -77 -140 -116t-166 -39z" />
    <glyph glyph-name="uni2D24" unicode="&#x2d24;" horiz-adv-x="1268" 
d="M1079 473q0 -449 -358 -487q5 -108 36.5 -201.5t114.5 -218.5l-86 -68q-240 204 -258 496q-146 31 -226.5 147.5t-80.5 325.5v405q0 70 -37 105t-129 35h-8v86h367v-633q0 -201 56.5 -290t180.5 -89t180 92.5t56 294.5v391q0 76 -36 112t-130 36h-8v86h366v-625z" />
    <glyph glyph-name="uni2D25" unicode="&#x2d25;" horiz-adv-x="1882" 
d="M823 553q0 240 -62 337t-208 97q-125 0 -183.5 -104t-58.5 -338q0 -239 61.5 -349t196.5 -110q132 0 193 111t61 356zM1016 1159l-8 -164l-4 -59h10q51 95 120.5 138.5t192.5 43.5q334 0 334 -401v-484q0 -77 33 -112t123 -35h8v-86h-357v707q0 148 -50.5 214t-164.5 66
q-237 0 -237 -332v-102q0 -571 -453 -571q-218 0 -334 144.5t-116 420.5q0 291 100 431t307 140q101 0 175.5 -43t127.5 -139h11q-11 183 -11 227v23q0 383 484 383q65 0 161.5 -14t153.5 -35v-90q-137 30 -285 30q-173 0 -247 -68t-74 -221v-12z" />
    <glyph glyph-name="uniFEFF" unicode="&#xfeff;" horiz-adv-x="0" 
 />
    </font>
</defs>
</svg>
