<?xml version="1.0" encoding="utf-8"?>
<!-- Generator: Adobe Illustrator 22.1.0, SVG Export Plug-In . SVG Version: 6.00 Build 0)  -->
<svg version="1.1" id="Layer_1" xmlns="http://www.w3.org/2000/svg" xmlns:xlink="http://www.w3.org/1999/xlink" x="0px" y="0px"
	 viewBox="0 0 22.6 23.1" style="enable-background:new 0 0 22.6 23.1;" xml:space="preserve">
<style type="text/css">
	.st0{fill:#0C0C0C;}
	.st1{fill:#FFFFFF;}
</style>
<ellipse class="st0" cx="11.3" cy="11.5" rx="11.3" ry="11.5"/>
<g>
	<path class="st1" d="M13.5,5.1H8.8C6.9,5.1,5.3,7,5.3,9.3V15c0,2.3,1.6,4.2,3.5,4.2h4.7c1.9,0,3.5-1.9,3.5-4.2V9.3
		C17,7,15.4,5.1,13.5,5.1z M15.3,15.5c0,1.5-1,2.7-2.3,2.7H8.4c-1.2,0-2.3-1.2-2.3-2.7V9.9c0-1.5,1-2.7,2.3-2.7H13
		c1.2,0,2.3,1.2,2.3,2.7L15.3,15.5L15.3,15.5z"/>
	<path class="st1" d="M10.8,8.7c-1.6,0-3,1.6-3,3.6s1.3,3.6,3,3.6s3-1.6,3-3.6S12.5,8.7,10.8,8.7z M10.8,14.5c-1,0-1.8-1-1.8-2.2
		s0.8-2.2,1.8-2.2c1,0,1.8,1,1.8,2.2C12.6,13.5,11.8,14.5,10.8,14.5z"/>
	<ellipse class="st1" cx="13.8" cy="8.7" rx="0.7" ry="0.9"/>
</g>
</svg>
