<?xml version="1.0" encoding="utf-8"?>
<!-- Generator: Adobe Illustrator 22.1.0, SVG Export Plug-In . SVG Version: 6.00 Build 0)  -->
<svg version="1.1" id="Layer_1" xmlns="http://www.w3.org/2000/svg" xmlns:xlink="http://www.w3.org/1999/xlink" x="0px" y="0px"
	 viewBox="0 0 19.5 21.6" style="enable-background:new 0 0 19.5 21.6;" xml:space="preserve">
<style type="text/css">
	.st0{fill:#636363;}
</style>
<path class="st0" d="M13.7,0H5.8C2.6,0,0,2.9,0,6.4v8.7c0,3.5,2.6,6.4,5.8,6.4h7.9c3.2,0,5.8-2.9,5.8-6.4V6.4
	C19.5,2.9,16.9,0,13.7,0z M17.6,15.2c0,2.4-1.7,4.3-3.9,4.3H5.8c-2.1,0-3.9-1.9-3.9-4.3V6.4c0-2.4,1.7-4.3,3.9-4.3h7.9
	c2.1,0,3.9,1.9,3.9,4.3V15.2L17.6,15.2z"/>
<path class="st0" d="M9.8,5.2c-2.8,0-5.1,2.5-5.1,5.6s2.3,5.6,5.1,5.6s5.1-2.5,5.1-5.6S12.6,5.2,9.8,5.2z M9.8,14.2
	c-1.7,0-3.1-1.5-3.1-3.4s1.4-3.4,3.1-3.4c1.7,0,3.1,1.5,3.1,3.4C12.9,12.7,11.5,14.2,9.8,14.2z"/>
<ellipse class="st0" cx="14.8" cy="5.3" rx="1.2" ry="1.3"/>
</svg>
