<?xml version="1.0" encoding="utf-8"?>
<!-- Generator: Adobe Illustrator 22.1.0, SVG Export Plug-In . SVG Version: 6.00 Build 0)  -->
<svg version="1.1" id="Layer_1" xmlns="http://www.w3.org/2000/svg" xmlns:xlink="http://www.w3.org/1999/xlink" x="0px" y="0px"
	 viewBox="0 0 22.6 23.1" style="enable-background:new 0 0 22.6 23.1;" xml:space="preserve">
<style type="text/css">
	.st0{fill:#0C0C0C;}
	.st1{fill:#FFFFFF;}
</style>
<ellipse class="st0" cx="11.3" cy="11.5" rx="11.3" ry="11.5"/>
<path class="st1" d="M16,7.9c-0.2,0.1-0.5,0.2-0.8,0.3c0.3-0.3,0.5-0.7,0.6-1.2l0,0c0-0.1-0.1-0.2-0.2-0.2l0,0
	c-0.4,0.3-0.7,0.5-1.2,0.6c0,0,0,0-0.1,0c-0.1,0-0.1,0-0.2-0.1c-0.4-0.5-1-0.7-1.6-0.7c-0.3,0-0.5,0-0.8,0.1
	c-0.8,0.3-1.4,1.1-1.6,2.1c-0.1,0.3-0.1,0.6,0,0.9c0,0,0,0.1,0,0.1c0,0,0,0-0.1,0c0,0,0,0,0,0C8.6,9.7,7.1,8.8,6,7.2l0,0
	C6,7.1,5.9,7.1,5.8,7.2l0,0C5.6,7.6,5.5,8.1,5.5,8.6c0,0.8,0.3,1.5,0.7,2c-0.2-0.1-0.4-0.1-0.5-0.3l0,0c-0.1-0.1-0.2,0-0.2,0.1l0,0
	c0,1.2,0.5,2.2,1.4,2.6c0,0,0,0-0.1,0c-0.1,0-0.3,0-0.4,0l0,0c-0.1,0-0.2,0.1-0.1,0.2l0,0c0.3,1,1,1.8,1.9,1.9
	c-0.7,0.6-1.6,0.9-2.4,0.9l-0.3,0c-0.1,0-0.2,0.1-0.2,0.2c0,0.1,0,0.2,0.1,0.3c1,0.7,2.1,1.1,3.3,1.1c1,0,1.9-0.2,2.8-0.7
	c0.8-0.4,1.5-1.1,2-1.8c0.5-0.7,1-1.6,1.2-2.5c0.3-0.9,0.4-1.9,0.4-2.8v0c0-0.1,0.1-0.3,0.2-0.4c0.4-0.4,0.7-0.8,0.9-1.2l0,0
	C16.3,8,16.2,7.8,16,7.9L16,7.9z"/>
</svg>
