<?xml version="1.0" encoding="utf-8"?>
<!-- Generator: Adobe Illustrator 22.1.0, SVG Export Plug-In . SVG Version: 6.00 Build 0)  -->
<svg version="1.1" id="Layer_1" xmlns="http://www.w3.org/2000/svg" xmlns:xlink="http://www.w3.org/1999/xlink" x="0px" y="0px"
	 viewBox="0 0 18.7 18.3" style="enable-background:new 0 0 18.7 18.3;" xml:space="preserve">
<style type="text/css">
	.st0{fill:#636363;}
</style>
<path class="st0" d="M18.4,2.1c-0.4,0.2-0.8,0.4-1.3,0.5c0.5-0.5,0.9-1.2,1.1-2l0,0c0.1-0.2-0.1-0.4-0.3-0.3l0,0
	c-0.6,0.4-1.3,0.8-2,1c0,0-0.1,0-0.1,0c-0.1,0-0.2-0.1-0.3-0.2C14.7,0.4,13.8,0,12.8,0c-0.4,0-0.9,0.1-1.3,0.2
	C10.2,0.7,9.2,2,8.9,3.5C8.7,4.1,8.7,4.7,8.8,5.3c0,0.1,0,0.1,0,0.1c0,0-0.1,0.1-0.1,0.1c0,0,0,0,0,0C5.7,5.2,3.2,3.5,1.3,0.9l0,0
	C1.2,0.8,1.1,0.8,1,0.9l0,0C0.6,1.7,0.4,2.5,0.4,3.3c0,1.3,0.4,2.5,1.2,3.4C1.3,6.6,1,6.5,0.7,6.3l0,0c-0.1-0.1-0.3,0-0.3,0.2l0,0
	c0,1.9,0.9,3.6,2.4,4.4c0,0-0.1,0-0.1,0c-0.2,0-0.5,0-0.7-0.1l0,0c-0.2,0-0.3,0.1-0.2,0.3l0,0c0.5,1.7,1.7,2.9,3.2,3.2
	c-1.2,1-2.7,1.5-4.2,1.5l-0.5,0C0.2,15.8,0,16,0,16.1c0,0.2,0,0.3,0.2,0.4c1.7,1.2,3.6,1.8,5.6,1.8c1.7,0,3.3-0.4,4.8-1.2
	c1.3-0.7,2.5-1.8,3.5-3.1c0.9-1.2,1.6-2.6,2.1-4.2c0.5-1.5,0.7-3.1,0.7-4.6V5.2c0-0.2,0.1-0.5,0.3-0.6c0.6-0.6,1.2-1.3,1.6-2.1l0,0
	C18.8,2.3,18.6,2,18.4,2.1L18.4,2.1z"/>
</svg>
